<svg xmlns="http://www.w3.org/2000/svg" viewBox="-404 -164 944 636" width="944" height="636">
<defs>
<linearGradient id="cyl" x1="0" y1="0" x2="1" y2="0">
<stop offset="0" stop-color="#1a7382"/><stop offset="0.45" stop-color="#2ea4b7"/><stop offset="1" stop-color="#135663"/>
</linearGradient>
</defs>
<g stroke="#232c39" stroke-width="1"><line x1="12.0" y1="-75.9" x2="-394.4" y2="158.7"/><line x1="51.8" y1="-52.9" x2="-354.6" y2="181.7"/><line x1="91.6" y1="-29.9" x2="-314.7" y2="204.7"/><line x1="131.5" y1="-6.9" x2="-274.9" y2="227.7"/><line x1="171.3" y1="16.1" x2="-235.0" y2="250.7"/><line x1="211.1" y1="39.1" x2="-195.2" y2="273.7"/><line x1="251.0" y1="62.1" x2="-155.4" y2="296.7"/><line x1="290.8" y1="85.1" x2="-115.5" y2="319.7"/><line x1="330.6" y1="108.1" x2="-75.7" y2="342.7"/><line x1="370.5" y1="131.1" x2="-35.9" y2="365.7"/><line x1="410.3" y1="154.1" x2="4.0" y2="388.7"/><line x1="450.2" y1="177.1" x2="43.8" y2="411.7"/><line x1="490.0" y1="200.1" x2="83.7" y2="434.7"/><line x1="529.8" y1="223.1" x2="123.5" y2="457.7"/><line x1="12.0" y1="-75.9" x2="529.8" y2="223.1"/><line x1="-27.9" y1="-52.9" x2="490.0" y2="246.1"/><line x1="-67.7" y1="-29.9" x2="450.2" y2="269.1"/><line x1="-107.6" y1="-6.9" x2="410.3" y2="292.1"/><line x1="-147.4" y1="16.1" x2="370.5" y2="315.1"/><line x1="-187.2" y1="39.1" x2="330.6" y2="338.1"/><line x1="-227.1" y1="62.1" x2="290.8" y2="361.1"/><line x1="-266.9" y1="85.1" x2="251.0" y2="384.1"/><line x1="-306.7" y1="108.1" x2="211.1" y2="407.1"/><line x1="-346.6" y1="131.1" x2="171.3" y2="430.1"/><line x1="-386.4" y1="154.1" x2="131.5" y2="453.1"/></g><g stroke-width="2.2"><line x1="-390.4" y1="170.2" x2="-350.6" y2="193.2" stroke="#e05b5b"/><line x1="-390.4" y1="170.2" x2="-430.2" y2="193.2" stroke="#57b871"/><line x1="-390.4" y1="170.2" x2="-390.4" y2="124.2" stroke="#5b8fe0"/></g><g font-family="Inter Variable, Inter, sans-serif" font-size="11" fill="#7d8ba0"><text x="-346.6" y="197.2">X</text><text x="-442.2" y="197.2">Y</text><text x="-394.4" y="118.2">Z</text></g><polygon points="362.5,209.3 115.5,351.9 115.5,338.1 362.5,195.5" fill="#155f6d" /><polygon points="115.5,351.9 -247.0,142.6 -247.0,128.8 115.5,338.1" fill="#1d7f90" /><polygon points="0.0,-13.8 362.5,195.5 115.5,338.1 -247.0,128.8" fill="#2ba5b8" /><polygon points="0.0,-13.8 362.5,195.5 115.5,338.1 -247.0,128.8" fill="none" stroke="#71d6e4" stroke-width="1.4" stroke-linejoin="round" opacity="0.9"/><polygon points="362.5,209.3 115.5,351.9 115.5,338.1 362.5,195.5" fill="none" stroke="#0d4753" stroke-width="1" opacity="0.8"/><polygon points="115.5,351.9 -247.0,142.6 -247.0,128.8 115.5,338.1" fill="none" stroke="#0d4753" stroke-width="1" opacity="0.8"/><ellipse cx="0.0" cy="16.1" rx="14.6" ry="8.5" fill="#1a6b7a"/><ellipse cx="310.7" cy="195.5" rx="14.6" ry="8.5" fill="#1a6b7a"/><ellipse cx="-195.2" cy="128.8" rx="14.6" ry="8.5" fill="#1a6b7a"/><ellipse cx="115.5" cy="308.2" rx="14.6" ry="8.5" fill="#1a6b7a"/><path d="M -19.7 -11.5 L -19.7 16.1 A 19.7 11.4 0 0 0 19.7 16.1 L 19.7 -11.5 Z" fill="url(#cyl)"/><ellipse cx="0.0" cy="-11.5" rx="19.7" ry="11.4" fill="#43bfd1" stroke="#8ce0ec" stroke-width="1.2"/><ellipse cx="0.0" cy="-11.5" rx="11.3" ry="6.5" fill="#0b3944"/><ellipse cx="0.0" cy="-11.5" rx="11.3" ry="6.5" fill="none" stroke="#0a2e37" stroke-width="1.6"/><path d="M -214.9 101.2 L -214.9 128.8 A 19.7 11.4 0 0 0 -175.5 128.8 L -175.5 101.2 Z" fill="url(#cyl)"/><ellipse cx="-195.2" cy="101.2" rx="19.7" ry="11.4" fill="#43bfd1" stroke="#8ce0ec" stroke-width="1.2"/><ellipse cx="-195.2" cy="101.2" rx="11.3" ry="6.5" fill="#0b3944"/><ellipse cx="-195.2" cy="101.2" rx="11.3" ry="6.5" fill="none" stroke="#0a2e37" stroke-width="1.6"/><path d="M 291.0 167.9 L 291.0 195.5 A 19.7 11.4 0 0 0 330.4 195.5 L 330.4 167.9 Z" fill="url(#cyl)"/><ellipse cx="310.7" cy="167.9" rx="19.7" ry="11.4" fill="#43bfd1" stroke="#8ce0ec" stroke-width="1.2"/><ellipse cx="310.7" cy="167.9" rx="11.3" ry="6.5" fill="#0b3944"/><ellipse cx="310.7" cy="167.9" rx="11.3" ry="6.5" fill="none" stroke="#0a2e37" stroke-width="1.6"/><path d="M 95.8 280.6 L 95.8 308.2 A 19.7 11.4 0 0 0 135.2 308.2 L 135.2 280.6 Z" fill="url(#cyl)"/><ellipse cx="115.5" cy="280.6" rx="19.7" ry="11.4" fill="#43bfd1" stroke="#8ce0ec" stroke-width="1.2"/><ellipse cx="115.5" cy="280.6" rx="11.3" ry="6.5" fill="#0b3944"/><ellipse cx="115.5" cy="280.6" rx="11.3" ry="6.5" fill="none" stroke="#0a2e37" stroke-width="1.6"/><polygon points="-127.5,211.6 -155.4,227.7 -155.4,213.9 -127.5,197.8" fill="#155f6d" /><polygon points="-155.4,227.7 -187.2,209.3 -187.2,195.5 -155.4,213.9" fill="#1d7f90" /><polygon points="-159.3,179.4 -127.5,197.8 -155.4,213.9 -187.2,195.5" fill="#2ba5b8" stroke="#71d6e4" stroke-width="1.2" opacity="0.97"/><ellipse cx="-157.4" cy="196.6" rx="9.6" ry="5.5" fill="#0f4854"/><polygon points="27.9,301.3 0.0,317.4 0.0,303.6 27.9,287.5" fill="#155f6d" /><polygon points="0.0,317.4 -31.9,299.0 -31.9,285.2 0.0,303.6" fill="#1d7f90" /><polygon points="-4.0,269.1 27.9,287.5 0.0,303.6 -31.9,285.2" fill="#2ba5b8" stroke="#71d6e4" stroke-width="1.2" opacity="0.97"/><ellipse cx="-2.0" cy="286.3" rx="9.6" ry="5.5" fill="#0f4854"/><polygon points="338.6,167.9 115.5,296.7 115.5,289.3 338.6,160.5" fill="rgba(52,211,153,0.10)" /><polygon points="115.5,296.7 -223.1,101.2 -223.1,93.8 115.5,289.3" fill="rgba(52,211,153,0.13)" /><polygon points="0.0,-35.0 338.6,160.5 115.5,289.3 -223.1,93.8" fill="rgba(52,211,153,0.16)" stroke="#4fd695" stroke-width="1.3" stroke-dasharray="5 4"/><polygon points="0.0,-27.6 338.6,167.9 115.5,296.7 -223.1,101.2" fill="none" stroke="#2f9e6d" stroke-width="1" stroke-dasharray="4 4" opacity="0.7"/><ellipse cx="0.0" cy="-18.9" rx="9.0" ry="5.2" fill="none" stroke="#4fd695" stroke-width="1.2" stroke-dasharray="3 3"/><ellipse cx="310.7" cy="160.5" rx="9.0" ry="5.2" fill="none" stroke="#4fd695" stroke-width="1.2" stroke-dasharray="3 3"/><ellipse cx="-195.2" cy="93.8" rx="9.0" ry="5.2" fill="none" stroke="#4fd695" stroke-width="1.2" stroke-dasharray="3 3"/><ellipse cx="115.5" cy="273.2" rx="9.0" ry="5.2" fill="none" stroke="#4fd695" stroke-width="1.2" stroke-dasharray="3 3"/><line x1="0.0" y1="16.1" x2="0.0" y2="-51.1" stroke="#7fb3f2" stroke-width="1" stroke-dasharray="2.5 3.5" opacity="0.75"/><line x1="310.7" y1="195.5" x2="310.7" y2="128.3" stroke="#7fb3f2" stroke-width="1" stroke-dasharray="2.5 3.5" opacity="0.75"/><line x1="-195.2" y1="128.8" x2="-195.2" y2="61.6" stroke="#7fb3f2" stroke-width="1" stroke-dasharray="2.5 3.5" opacity="0.75"/><line x1="115.5" y1="308.2" x2="115.5" y2="241.0" stroke="#7fb3f2" stroke-width="1" stroke-dasharray="2.5 3.5" opacity="0.75"/><polygon points="286.8,239.2 211.1,282.9 211.1,213.9 286.8,170.2" fill="rgba(244,105,96,0.10)" /><polygon points="211.1,282.9 127.5,234.6 127.5,165.6 211.1,213.9" fill="rgba(244,105,96,0.13)" /><polygon points="203.2,121.9 286.8,170.2 211.1,213.9 127.5,165.6" fill="rgba(244,105,96,0.16)" stroke="#f4695f" stroke-width="1.2" stroke-dasharray="4 3"/><line x1="203.2" y1="190.9" x2="203.2" y2="121.9" stroke="#f4695f" stroke-width="1" stroke-dasharray="3 3" opacity="0.7"/><line x1="286.8" y1="239.2" x2="286.8" y2="170.2" stroke="#f4695f" stroke-width="1" stroke-dasharray="3 3" opacity="0.7"/><line x1="211.1" y1="282.9" x2="211.1" y2="213.9" stroke="#f4695f" stroke-width="1" stroke-dasharray="3 3" opacity="0.7"/><line x1="127.5" y1="234.6" x2="127.5" y2="165.6" stroke="#f4695f" stroke-width="1" stroke-dasharray="3 3" opacity="0.7"/><polygon points="203.2,190.9 286.8,239.2 211.1,282.9 127.5,234.6" fill="none" stroke="#f4695f" stroke-width="1" stroke-dasharray="3 3" opacity="0.55"/><polygon points="111.5,216.2 67.7,241.5 67.7,181.7 111.5,156.4" fill="rgba(244,105,96,0.10)" /><polygon points="67.7,241.5 23.9,216.2 23.9,156.4 67.7,181.7" fill="rgba(244,105,96,0.13)" /><polygon points="67.7,131.1 111.5,156.4 67.7,181.7 23.9,156.4" fill="rgba(244,105,96,0.16)" stroke="#f4695f" stroke-width="1.2" stroke-dasharray="4 3"/><line x1="67.7" y1="190.9" x2="67.7" y2="131.1" stroke="#f4695f" stroke-width="1" stroke-dasharray="3 3" opacity="0.7"/><line x1="111.5" y1="216.2" x2="111.5" y2="156.4" stroke="#f4695f" stroke-width="1" stroke-dasharray="3 3" opacity="0.7"/><line x1="67.7" y1="241.5" x2="67.7" y2="181.7" stroke="#f4695f" stroke-width="1" stroke-dasharray="3 3" opacity="0.7"/><line x1="23.9" y1="216.2" x2="23.9" y2="156.4" stroke="#f4695f" stroke-width="1" stroke-dasharray="3 3" opacity="0.7"/><polygon points="67.7,190.9 111.5,216.2 67.7,241.5 23.9,216.2" fill="none" stroke="#f4695f" stroke-width="1" stroke-dasharray="3 3" opacity="0.55"/>
</svg>